<?xml version="1.0" encoding="utf-8"?>
<!-- Generator: Adobe Illustrator 15.0.0, SVG Export Plug-In . SVG Version: 6.00 Build 0)  -->
<!DOCTYPE svg PUBLIC "-//W3C//DTD SVG 1.1//EN" "http://www.w3.org/Graphics/SVG/1.1/DTD/svg11.dtd">
<svg version="1.1"
	 id="svg2" xmlns:inkscape="http://www.inkscape.org/namespaces/inkscape" sodipodi:docname="bluetooth-off.svg" inkscape:version="0.48.3.1 r9886" xmlns:sodipodi="http://sodipodi.sourceforge.net/DTD/sodipodi-0.dtd" xmlns:svg="http://www.w3.org/2000/svg" xmlns:rdf="http://www.w3.org/1999/02/22-rdf-syntax-ns#" xmlns:cc="http://creativecommons.org/ns#" xmlns:dc="http://purl.org/dc/elements/1.1/"
	 xmlns="http://www.w3.org/2000/svg" xmlns:xlink="http://www.w3.org/1999/xlink" x="0px" y="0px" width="100px" height="100px"
	 viewBox="0 0 100 100" enable-background="new 0 0 100 100" xml:space="preserve">
<sodipodi:namedview  inkscape:window-maximized="0" inkscape:window-y="129" inkscape:window-x="78" inkscape:window-height="996" inkscape:window-width="1717" showgrid="false" inkscape:current-layer="layer1" inkscape:document-units="px" inkscape:cy="8.5149256" inkscape:zoom="2.8284271" inkscape:pageshadow="2" inkscape:cx="-39.45598" inkscape:pageopacity="0.0" borderopacity="1.0" bordercolor="#666666" pagecolor="#ffffff" id="base">
	</sodipodi:namedview>
<g>
	<g>
		<path fill-rule="evenodd" clip-rule="evenodd" fill="#A0A0A0" d="M52.797,50.638L64.344,39.09c2.562-2.559,2.562-6.703,0-9.261
			L44.681,10.166v32.355L29.875,27.716c-0.112-0.112-0.229-0.213-0.347-0.314h-0.148v-0.126c-0.139-0.112-0.28-0.219-0.424-0.318
			c-0.808,2.27-1.533,4.662-2.167,7.158l16.532,16.531L26.808,67.161c0.64,2.488,1.364,4.873,2.171,7.142
			c0.137-0.095,0.271-0.197,0.402-0.303v-0.141h0.166c0.111-0.096,0.223-0.191,0.329-0.298l14.805-14.807v32.354l19.663-19.664
			c2.562-2.558,2.562-6.704,0-9.262L52.797,50.638z M51.477,26.443l6.422,6.421c0.015,0.015,0.031,0.026,0.053,0.044
			c0.829,0.831,0.845,2.152,0.082,3.014v0.01l-6.557,6.557V26.443z M58.033,68.279v0.008l-6.557,6.558V58.799l6.422,6.422
			c0.015,0.015,0.031,0.025,0.053,0.045C58.78,66.094,58.796,67.418,58.033,68.279z"/>
	</g>
</g>
</svg>
