<?xml version="1.0" encoding="utf-8"?>
<!-- Generator: Adobe Illustrator 15.0.0, SVG Export Plug-In . SVG Version: 6.00 Build 0)  -->
<!DOCTYPE svg PUBLIC "-//W3C//DTD SVG 1.1//EN" "http://www.w3.org/Graphics/SVG/1.1/DTD/svg11.dtd">
<svg version="1.1"
	 id="svg2" xmlns:inkscape="http://www.inkscape.org/namespaces/inkscape" sodipodi:docname="power-save-off.svg" inkscape:version="0.48.3.1 r9886" xmlns:sodipodi="http://sodipodi.sourceforge.net/DTD/sodipodi-0.dtd" xmlns:svg="http://www.w3.org/2000/svg" xmlns:rdf="http://www.w3.org/1999/02/22-rdf-syntax-ns#" xmlns:cc="http://creativecommons.org/ns#" xmlns:dc="http://purl.org/dc/elements/1.1/"
	 xmlns="http://www.w3.org/2000/svg" xmlns:xlink="http://www.w3.org/1999/xlink" x="0px" y="0px" width="100px" height="100px"
	 viewBox="0 0 100 100" enable-background="new 0 0 100 100" xml:space="preserve">
<sodipodi:namedview  inkscape:window-maximized="0" inkscape:window-y="24" inkscape:window-x="65" inkscape:window-height="996" inkscape:window-width="1717" showgrid="false" inkscape:current-layer="layer1" inkscape:document-units="px" inkscape:cy="55.528492" inkscape:zoom="2.8284271" inkscape:pageshadow="2" inkscape:cx="-2.9081649" inkscape:pageopacity="0.0" borderopacity="1.0" bordercolor="#666666" pagecolor="#ffffff" id="base">
	</sodipodi:namedview>
<g>
	<g>
		<path fill="#05BCE1" d="M13.306,66.814c-2.561,0-4.636-2.108-4.636-4.709v-22.17c0-2.604,2.075-4.708,4.636-4.708h12.646
			c0.657-0.921,1.366-1.803,2.13-2.635h-15.09c-3.822,0-6.919,3.142-6.919,7.021v22.819c0,3.879,3.097,7.021,6.919,7.021h15.089
			c-0.765-0.833-1.475-1.716-2.132-2.639H13.306z M93.942,43.482c-1.297-1.303-2.984-2.194-4.868-2.492v-1.377
			c0-3.878-3.103-7.021-6.917-7.021H68.34c0.765,0.832,1.473,1.713,2.13,2.635h11.36c2.565,0,4.637,2.105,4.637,4.708v22.17
			c0,2.601-2.071,4.709-4.637,4.709H70.474c-0.658,0.923-1.367,1.806-2.133,2.639h13.816c3.814,0,6.917-3.143,6.917-7.021v-1.373
			c1.884-0.299,3.571-1.192,4.868-2.496C94.615,55.455,95,54.697,95,51.068C95,47.44,94.615,46.59,93.942,43.482z M80.43,63.309
			c1.427,0,2.593-1.18,2.593-2.634V41.368c0-1.453-1.166-2.634-2.593-2.634H69.182c-4.215-7.22-12.024-12.073-20.97-12.073
			c-8.947,0-16.758,4.853-20.974,12.073H14.718c-1.434,0-2.592,1.181-2.592,2.634v19.307c0,1.454,1.158,2.634,2.592,2.634h12.517
			c4.215,7.223,12.028,12.076,20.977,12.076c8.948,0,16.758-4.854,20.972-12.076H80.43z M49.326,66.136v6.327h-3.375V66.18
			c-3.283-0.257-6.273-1.543-8.297-3.547l2.234-2.526c1.941,1.927,4.256,2.997,7.412,2.997c3.374,0,6.152-1.756,6.152-5.265
			c0-2.778-1.306-4.527-6.105-6.027c-5.518-1.707-8.51-4.272-8.51-8.421c0-3.891,2.861-6.713,7.163-7.313v-6.496h3.327v6.455
			c3.03,0.257,5.391,1.369,7.412,3.247l-2.273,2.395c-1.94-1.838-4.089-2.606-6.487-2.606c-2.865,0-5.097,1.368-5.097,4.188
			c0,2.397,1.177,3.68,6.277,5.261c4.548,1.455,8.376,3.804,8.376,9.196C57.533,62.328,54.628,65.535,49.326,66.136z"/>
	</g>
</g>
</svg>
