<?xml version="1.0" encoding="utf-8"?>
<!-- Generator: Adobe Illustrator 15.0.0, SVG Export Plug-In . SVG Version: 6.00 Build 0)  -->
<!DOCTYPE svg PUBLIC "-//W3C//DTD SVG 1.1//EN" "http://www.w3.org/Graphics/SVG/1.1/DTD/svg11.dtd">
<svg version="1.1"
	 id="svg2" xmlns:inkscape="http://www.inkscape.org/namespaces/inkscape" sodipodi:docname="settings.svg" inkscape:version="0.48.3.1 r9886" xmlns:sodipodi="http://sodipodi.sourceforge.net/DTD/sodipodi-0.dtd" xmlns:svg="http://www.w3.org/2000/svg" xmlns:rdf="http://www.w3.org/1999/02/22-rdf-syntax-ns#" xmlns:cc="http://creativecommons.org/ns#" xmlns:dc="http://purl.org/dc/elements/1.1/"
	 xmlns="http://www.w3.org/2000/svg" xmlns:xlink="http://www.w3.org/1999/xlink" x="0px" y="0px" width="100px" height="100px"
	 viewBox="0 0 100 100" enable-background="new 0 0 100 100" xml:space="preserve">
<defs>
	
	
		<inkscape:perspective  id="perspective60" inkscape:vp_y="0 : 1000 : 0" inkscape:persp3d-origin="24 : 16 : 1" inkscape:vp_z="48 : 24 : 1" inkscape:vp_x="0 : 24 : 1" sodipodi:type="inkscape:persp3d">
		</inkscape:perspective>
</defs>
<sodipodi:namedview  inkscape:window-maximized="0" inkscape:window-y="39" inkscape:window-x="133" inkscape:window-height="993" inkscape:window-width="1647" showgrid="false" inkscape:current-layer="layer1" inkscape:document-units="px" inkscape:cy="78.627297" inkscape:zoom="1" inkscape:pageshadow="2" inkscape:cx="-167.0031" inkscape:pageopacity="0.0" borderopacity="1.0" bordercolor="#666666" pagecolor="#ffffff" id="base">
	</sodipodi:namedview>
<g>
	<g>
		<path fill-rule="evenodd" clip-rule="evenodd" fill="#FFFFFF" d="M81.017,56.314c-1.525-0.535-2.599-3.582-2.599-6.877
			c0-3.296,1.073-6.344,2.599-6.876l2.456-0.862c-0.843-3.581-2.242-6.948-4.127-9.987l-2.354,1.132
			c-1.46,0.701-4.365-0.694-6.699-3.024c-2.335-2.331-3.728-5.244-3.032-6.699l1.13-2.349c-3.039-1.881-6.396-3.299-9.976-4.141
			l-0.864,2.466c-0.536,1.525-3.583,2.597-6.877,2.597c-3.296,0-6.344-1.072-6.876-2.597l-0.865-2.466
			c-3.582,0.842-6.933,2.271-9.973,4.153l1.124,2.337c0.7,1.456-0.697,4.368-3.028,6.699c-2.33,2.33-5.243,3.725-6.699,3.024
			l-2.336-1.123c-1.884,3.04-3.313,6.392-4.156,9.975l2.468,0.866c1.525,0.532,2.598,3.581,2.598,6.876
			c0,3.295-1.073,6.342-2.598,6.877l-2.458,0.862c0.843,3.58,2.242,6.947,4.125,9.985l2.357-1.133
			c1.456-0.7,4.369,0.697,6.699,3.027c2.331,2.327,3.728,5.243,3.028,6.699l-1.128,2.347c3.04,1.882,6.397,3.299,9.979,4.141
			l0.864-2.463c0.532-1.525,3.58-2.599,6.876-2.599c3.294,0,6.341,1.073,6.877,2.599l0.861,2.456
			c3.579-0.843,6.944-2.241,9.981-4.124l-1.133-2.356c-0.695-1.456,0.697-4.372,3.032-6.699c2.334-2.33,5.239-3.728,6.699-3.027
			l2.345,1.127c1.883-3.039,3.301-6.397,4.143-9.979L81.017,56.314z M50.674,67.222c-9.822,0-17.783-7.961-17.783-17.784
			c0-9.822,7.961-17.783,17.783-17.783c9.823,0,17.784,7.961,17.784,17.783C68.458,59.261,60.497,67.222,50.674,67.222z"/>
	</g>
</g>
</svg>
