<?xml version="1.0" encoding="utf-8"?>
<!-- Generator: Adobe Illustrator 15.0.0, SVG Export Plug-In . SVG Version: 6.00 Build 0)  -->
<!DOCTYPE svg PUBLIC "-//W3C//DTD SVG 1.1//EN" "http://www.w3.org/Graphics/SVG/1.1/DTD/svg11.dtd">
<svg version="1.1"
	 id="svg2" xmlns:inkscape="http://www.inkscape.org/namespaces/inkscape" sodipodi:docname="wifi-off.svg" inkscape:version="0.48.3.1 r9886" xmlns:sodipodi="http://sodipodi.sourceforge.net/DTD/sodipodi-0.dtd" xmlns:svg="http://www.w3.org/2000/svg" xmlns:rdf="http://www.w3.org/1999/02/22-rdf-syntax-ns#" xmlns:cc="http://creativecommons.org/ns#" xmlns:dc="http://purl.org/dc/elements/1.1/"
	 xmlns="http://www.w3.org/2000/svg" xmlns:xlink="http://www.w3.org/1999/xlink" x="0px" y="0px" width="100px" height="100px"
	 viewBox="0 0 100 100" enable-background="new 0 0 100 100" xml:space="preserve">
<sodipodi:namedview  inkscape:window-maximized="0" inkscape:window-y="24" inkscape:window-x="65" inkscape:window-height="996" inkscape:window-width="1717" showgrid="false" inkscape:current-layer="layer1" inkscape:document-units="px" inkscape:cy="25.547479" inkscape:zoom="3.959798" inkscape:pageshadow="2" inkscape:cx="-38.744015" inkscape:pageopacity="0.0" borderopacity="1.0" bordercolor="#666666" pagecolor="#ffffff" id="base">
	</sodipodi:namedview>
<path fill-rule="evenodd" clip-rule="evenodd" fill="#05BCE1" d="M88.41,46.932C79.625,35.787,66.037,28.61,50.74,28.61
	c-15.28,0-28.86,7.165-37.646,18.291l-6.089-6.089C17.368,28.158,33.108,20.077,50.74,20.077c17.648,0,33.396,8.097,43.76,20.766
	L88.41,46.932z M82.397,52.944l-6.081,6.081c-5.6-8.127-14.959-13.46-25.576-13.46c-10.6,0-19.952,5.32-25.552,13.432l-6.082-6.083
	c7.215-9.625,18.682-15.878,31.634-15.878C63.708,37.036,75.183,43.301,82.397,52.944z M50.74,53.994
	c8.296,0,15.534,4.48,19.464,11.145l-6.365,6.364c-2.037-5.261-7.116-9.007-13.099-9.007c-5.967,0-11.036,3.727-13.083,8.975
	l-6.357-6.362C35.238,58.463,42.461,53.994,50.74,53.994z M50.74,70.948c3.126,0,5.653,2.531,5.653,5.649
	c0,3.121-2.527,5.652-5.653,5.652c-3.116,0-5.652-2.531-5.652-5.652C45.088,73.479,47.624,70.948,50.74,70.948z"/>
</svg>
